<svg xmlns="http://www.w3.org/2000/svg" viewBox="0 0 64 64" role="img" aria-label="Aquashares">
  <defs>
    <linearGradient id="bg" x1="0" y1="0" x2="1" y2="1">
      <stop offset="0%" stop-color="#0dcaf0"/>
      <stop offset="55%" stop-color="#0d6efd"/>
      <stop offset="100%" stop-color="#198754"/>
    </linearGradient>
  </defs>
  <rect width="64" height="64" rx="14" fill="url(#bg)"/>
  <path d="M12 35c0-8 8-15 18-15h8c8 0 14 5 14 11s-6 11-14 11h-8c-10 0-18-7-18-7z" fill="#ffffff"/>
  <path d="M52 31l8-7v14z" fill="#ffffff"/>
  <circle cx="39" cy="29" r="1.9" fill="#0d6efd"/>
  <path d="M18 50c3-2 5-6 5-10 2 4 2 8 0 12" fill="none" stroke="#ffffff" stroke-width="2" stroke-linecap="round"/>
  <circle cx="22" cy="18" r="2" fill="#ffffff" opacity="0.75"/>
  <circle cx="27" cy="13" r="1.4" fill="#ffffff" opacity="0.65"/>
</svg>
